PathFileType	4	(X/Y/Z)	C:\Users\Basilio\Documents\Thesis Gigler\squatting_fais\c3dfiles\039\SLS_pre_back5\markers_experimental.trc
DataRate	CameraRate	NumFrames	NumMarkers	Units	OrigDataRate	OrigDataStartFrame	OrigNumFrames
200.000000	200.000000	4	65	mm	200.000000	241	1934
Frame#	Time	FHD			LBHD			RBHD			C7			T10			CLAV			LSHO			LUUPA			LMUPA			LDUPA			LLEP			LMEP			LRAD			LUL			LRFIN			RSHO			RUPA1			RMUPA			RDUPA			RLEP			RMEP			RRAD			RUL			RUFIN			LASI			RASI			USACR			LSACR			RSACR			LTHI1			LTHI2			LTHI3			LTHI4			LLFC			LMFC			LTIB1			LTIB2			LTIB3			LTIB4			LLMAL			LMMAL			LHEE			LMT1			LMT2			LMT5			RTHI			RTHI2			RTHI3			RTHI4			RLFC			RMFC			RTIB1			RTIB2			RTIB3			RTIB4			RLMAL			RMMAL			RHEE			RMT1			RMT2			RMT5			*61			*62			*63			*64			
		X1	Y1	Z1	X2	Y2	Z2	X3	Y3	Z3	X4	Y4	Z4	X5	Y5	Z5	X6	Y6	Z6	X7	Y7	Z7	X8	Y8	Z8	X9	Y9	Z9	X10	Y10	Z10	X11	Y11	Z11	X12	Y12	Z12	X13	Y13	Z13	X14	Y14	Z14	X15	Y15	Z15	X16	Y16	Z16	X17	Y17	Z17	X18	Y18	Z18	X19	Y19	Z19	X20	Y20	Z20	X21	Y21	Z21	X22	Y22	Z22	X23	Y23	Z23	X24	Y24	Z24	X25	Y25	Z25	X26	Y26	Z26	X27	Y27	Z27	X28	Y28	Z28	X29	Y29	Z29	X30	Y30	Z30	X31	Y31	Z31	X32	Y32	Z32	X33	Y33	Z33	X34	Y34	Z34	X35	Y35	Z35	X36	Y36	Z36	X37	Y37	Z37	X38	Y38	Z38	X39	Y39	Z39	X40	Y40	Z40	X41	Y41	Z41	X42	Y42	Z42	X43	Y43	Z43	X44	Y44	Z44	X45	Y45	Z45	X46	Y46	Z46	X47	Y47	Z47	X48	Y48	Z48	X49	Y49	Z49	X50	Y50	Z50	X51	Y51	Z51	X52	Y52	Z52	X53	Y53	Z53	X54	Y54	Z54	X55	Y55	Z55	X56	Y56	Z56	X57	Y57	Z57	X58	Y58	Z58	X59	Y59	Z59	X60	Y60	Z60	X61	Y61	Z61	X62	Y62	Z62	X63	Y63	Z63	X64	Y64	Z64	X65	Y65	Z65	

242	1.205	-260.5550537109376	1787.969604492188	-791.689147949219	-413.2285461425782	1760.152099609375	-918.794616699219	-391.561492919922	1762.9638671875	-778.7615966796877	-444.881805419922	1582.709350585938	-867.5256958007815	-420.5593566894532	1275.260009765625	-891.9205322265627	nan	nan	nan	-367.6671142578126	1606.384521484375	-1019.966613769531	-189.999740600586	1585.266479492188	-1115.701171875	-172.982666015625	1619.776977539063	-1083.542846679688	-122.0785522460938	1601.75048828125	-1110.306030273438	-56.74076461791994	1616.613403320313	-1100.35009765625	-47.61860656738282	1546.558349609375	-1067.251831054688	206.4691619873047	1676.831298828125	-984.0478515625002	212.2262573242188	1684.254638671875	-1060.015380859375	284.3038024902344	1720.448974609375	-972.757019042969	-347.8378601074219	1598.487670898438	-709.2025756835939	-179.8734283447266	1544.338500976563	-609.5977172851564	-156.263412475586	1581.401977539063	-633.8886108398439	-111.1953201293946	1547.71630859375	-611.1585083007814	-50.6500816345215	1567.603393554688	-620.1315307617189	-39.42384719848634	1503.471923828125	-663.6900024414064	231.3359069824219	1642.89990234375	-696.9484863281251	233.0243835449219	1628.276000976563	-622.5532226562501	310.8035278320313	1688.433349609375	-686.2278442382814	-229.8294525146485	1105.037475585938	-1002.635070800781	-234.2156829833985	1092.705322265625	-776.0479125976565	-419.0104980468751	1149.32763671875	-890.7793579101565	-418.6438598632814	1116.796508789063	-919.436706542969	-423.6866455078126	1116.991821289063	-860.669372558594	-300.8815307617188	820.9497680664065	-1074.173828125	-269.0494079589844	742.6279907226564	-1074.40087890625	-221.2198486328126	745.6443481445314	-1067.576293945313	-296.9223327636719	690.0734252929689	-1062.741333007813	-302.3315429687501	566.3535766601564	-1060.197998046875	-269.5664062500001	540.7376708984376	-948.145690917969	-251.4776306152344	415.9186401367189	-1040.556640625	-321.7869262695313	376.6968078613282	-1077.14892578125	-279.7630920410157	370.7506103515626	-1064.012939453125	-279.9528808593751	291.0938110351563	-1025.623413085938	-348.8700866699219	125.3131332397461	-1051.333862304688	-327.1709594726563	127.3098068237305	-968.1278076171877	-414.4689025878907	84.36862182617189	-1009.802978515625	-182.6239013671875	56.62392044067384	-993.3747558593752	-191.4830932617188	52.56623458862306	-1036.63037109375	-238.8233337402344	31.58321952819825	-1085.345581054688	-279.4208374023438	820.0181274414065	-711.3969116210939	-237.5633544921876	768.1689453125002	-707.6657104492189	-205.9375152587891	773.6729125976565	-713.2968139648439	-260.7080688476563	686.1888427734376	-716.6509399414064	-290.6574096679688	546.5396118164064	-738.5075073242189	-251.5648956298829	532.4979858398439	-851.0571289062502	-268.4146118164063	332.7769775390626	-745.5620117187501	-358.7270507812501	274.8758850097657	-738.8068237304689	-313.5858154296876	262.2127685546876	-735.8500366210939	-298.9981079101563	211.3187408447266	-766.0050048828126	-370.9595642089844	121.654167175293	-742.9105224609376	-340.2557678222657	136.1119384765625	-826.860046386719	-438.7397460937501	98.51172637939456	-793.7752685546877	-214.0592346191407	56.11863708496095	-803.5654907226565	-218.4128875732422	55.91017913818361	-757.9882812500001	-273.1334838867188	35.17552185058594	-706.9664306640626	nan	nan	nan	nan	nan	nan	nan	nan	nan	nan	nan	nan	
243	1.21	-260.2393188476563	1787.88525390625	-791.2926025390627	-412.0488891601564	1760.136596679688	-918.6860351562502	-391.338592529297	1763.169067382813	-778.4080810546877	-444.7629699707032	1582.7529296875	-867.0203247070315	-420.6479797363282	1275.306274414063	-891.584411621094	nan	nan	nan	-367.6079101562501	1606.507568359375	-1019.560852050781	-189.9176177978516	1585.29052734375	-1115.193359375	-173.0170440673828	1619.82958984375	-1083.026245117188	-122.0680770874024	1601.8623046875	-1109.93212890625	-56.80656814575197	1616.605834960938	-1100.007080078125	-47.57199478149415	1546.541748046875	-1066.860473632813	206.5975646972657	1676.71240234375	-983.697204589844	212.3050537109376	1684.2158203125	-1059.616455078125	284.3226928710938	1720.52880859375	-972.3665161132815	-347.5865783691407	1598.615234375	-708.8315429687501	-179.7001495361328	1544.348266601563	-609.1916503906251	-155.9855041503907	1581.485595703125	-633.6060791015626	-110.955436706543	1547.812255859375	-610.7965698242189	-50.31181716918947	1567.774047851563	-619.8699340820314	-39.18772125244141	1503.458251953125	-663.3460083007814	231.554672241211	1642.922729492188	-696.8110961914064	233.3223266601563	1628.272094726563	-622.4752807617189	311.0039672851563	1688.547241210938	-686.1053466796876	-230.1412963867188	1105.03857421875	-1002.316101074219	-234.3463287353516	1092.648315429688	-775.8597412109377	-418.8436279296876	1148.676879882813	-890.618591308594	-418.918914794922	1116.79638671875	-919.196228027344	-423.8994750976564	1116.964477539063	-860.4060058593752	-300.9789428710938	820.942810058594	-1074.019287109375	-269.1533813476563	742.6315917968751	-1074.08447265625	-221.9542846679688	746.2014770507814	-1067.472900390625	-297.0116271972657	690.0616455078126	-1062.59521484375	-302.3327941894532	566.3669433593751	-1060.03466796875	-269.5431518554688	540.6949462890626	-948.0491333007815	-251.4777069091797	415.908172607422	-1040.521240234375	-321.7523193359376	376.7054748535157	-1077.071411132813	-279.7804565429688	370.8614807128907	-1063.929809570313	-279.9142456054688	291.0657958984376	-1025.576904296875	-348.8580627441407	125.3060607910157	-1051.316528320313	-327.0568237304688	127.3593292236328	-968.030212402344	-414.4893493652345	84.34378051757814	-1009.803649902344	-182.6247863769532	56.59777832031251	-993.3878173828127	-191.4896850585938	52.57957077026369	-1036.648803710938	-238.728744506836	31.58204078674317	-1085.391723632813	-279.5557250976563	820.0187988281252	-711.1389770507814	-237.6352844238282	768.1361083984377	-707.5429077148439	-206.0304870605469	773.655944824219	-713.1712036132814	-260.8080749511719	686.2066040039064	-716.4684448242189	-290.6653747558594	546.5112915039064	-738.3828735351564	-251.6417846679688	532.4780883789064	-850.946716308594	-268.4344787597657	332.8298339843751	-745.5548095703126	-358.6852111816407	274.8161010742188	-738.7716674804689	-313.5945739746094	262.1820983886719	-735.7755126953126	-298.9818420410157	211.3327026367188	-766.0285644531251	-370.9555664062501	121.6516571044922	-742.9445190429689	-340.1904296875001	136.1112976074219	-826.8298339843752	-438.7480773925782	98.52291107177737	-793.814147949219	-214.1152648925782	56.24559783935548	-803.5960083007815	-218.4266815185547	55.94156646728517	-758.0437622070314	-273.1730346679688	35.14184570312501	-706.9862670898439	nan	nan	nan	nan	nan	nan	nan	nan	nan	nan	nan	nan	
244	1.215	-259.9251708984376	1787.795288085938	-790.8601684570315	-412.191131591797	1760.255859375	-918.1192626953127	-391.0429077148439	1763.152709960938	-778.0095214843752	-444.6482543945314	1582.8310546875	-866.5164184570315	-420.8763122558595	1275.44921875	-891.3193359375002	nan	nan	nan	-367.5980834960938	1606.601806640625	-1019.083801269531	-189.9597625732422	1585.213012695313	-1114.7490234375	-172.9963073730469	1619.958129882813	-1082.616821289063	-121.9900207519532	1601.874389648438	-1109.472778320313	-56.26239395141603	1616.378540039063	-1099.592041015625	-47.60061645507813	1546.484252929688	-1066.338623046875	206.6536102294922	1676.627075195313	-983.3657226562502	212.3818817138672	1684.136352539063	-1059.206909179688	284.2843933105469	1720.539184570313	-971.9256591796877	-347.3446655273438	1598.691650390625	-708.3696289062501	-179.4387969970703	1544.456420898438	-608.8052978515626	-155.8556060791016	1581.527221679688	-633.3245849609376	-110.7370300292969	1547.748413085938	-610.4218139648439	-49.96737670898439	1567.800048828125	-619.6076660156251	-38.99392318725587	1503.492431640625	-663.1062011718751	231.7646026611329	1642.996948242188	-696.6508789062501	233.6315002441407	1628.278076171875	-622.3515625000001	311.2261047363282	1688.650024414063	-685.9720458984376	-230.3503875732422	1105.050659179688	-1002.057556152344	-234.5190582275391	1092.725463867188	-775.5324707031252	-418.9817504882814	1148.720092773438	-890.375915527344	-419.0256958007814	1116.828247070313	-918.9129028320315	-424.1245422363282	1117.0126953125	-860.041687011719	-301.1162414550782	820.9838867187502	-1073.770141601563	-269.1930236816407	742.6201782226564	-1073.9521484375	-222.0972900390626	746.1666259765626	-1067.2783203125	-297.0717163085938	690.1018066406251	-1062.39599609375	-302.3215026855469	566.3411865234376	-1059.86279296875	-269.5883789062501	540.6953125000001	-947.9532470703127	-251.4689483642579	415.9542236328126	-1040.46484375	-321.8163146972657	376.7645874023438	-1077.056396484375	-279.7781982421876	370.8572692871094	-1063.879150390625	-279.9113464355469	291.0793762207032	-1025.569458007813	-348.8624267578126	125.3324584960938	-1051.31005859375	-327.1061401367188	127.375228881836	-968.0491333007815	-414.5153808593751	84.41564178466798	-1009.801208496094	-182.6399536132813	56.61331176757814	-993.3593750000002	-191.5185852050782	52.60534286499025	-1036.677124023438	-238.789535522461	31.56882667541505	-1085.355346679688	-279.7807006835938	819.9854125976565	-710.8933105468751	-237.6404724121094	768.1269531250002	-707.3680419921876	-206.0435485839844	773.598571777344	-712.9979248046876	-260.8526306152344	686.0613403320314	-716.1891479492189	-290.6762390136719	546.5181884765626	-738.2822265625001	-252.020248413086	532.4428100585939	-850.5286865234377	-268.4408264160157	332.8029174804688	-745.4888916015626	-358.6858825683594	274.7792053222657	-738.7010498046876	-313.6029663085938	262.1886901855469	-735.7537231445314	-298.9706726074219	211.3167572021485	-766.0043334960939	-370.9595336914063	121.6175003051758	-742.9400634765626	-340.2288513183594	136.1084594726563	-826.8741455078127	-438.479705810547	98.27238464355472	-793.631774902344	-214.0773468017579	56.1971778869629	-803.6107177734377	-218.4173126220704	55.93880462646486	-757.9852905273439	-273.1837158203126	35.12602615356446	-707.0372924804689	nan	nan	nan	nan	nan	nan	nan	nan	nan	nan	nan	nan	
245	1.22	-259.5673828125001	1787.744506835938	-790.431823730469	-412.4932861328126	1760.35986328125	-917.3703613281252	-390.7009887695314	1763.178344726563	-777.4649658203127	-444.591033935547	1582.99462890625	-865.9663085937502	-420.911834716797	1275.447509765625	-890.9711914062502	nan	nan	nan	-367.7391967773438	1606.581176757813	-1018.470947265625	-189.8687286376953	1585.263671875	-1114.30615234375	-173.1878662109375	1619.667358398438	-1081.875244140625	-122.0135955810547	1601.879638671875	-1109.043579101563	-56.68016052246095	1616.673095703125	-1099.144409179688	-47.64757156372071	1546.50341796875	-1065.9130859375	206.7390136718751	1676.545166015625	-982.9360351562502	212.4598846435547	1684.0830078125	-1058.843994140625	284.3328552246094	1720.536254882813	-971.4856567382815	-347.0997009277344	1598.66748046875	-707.8977661132814	-179.1650543212891	1544.36083984375	-608.2158203125001	-155.601303100586	1581.513061523438	-633.0328979492189	-110.5400848388672	1547.7705078125	-610.1019897460939	-49.67983627319337	1567.74560546875	-619.3503417968751	-38.85159301757813	1503.544677734375	-662.7406616210939	232.0586242675782	1642.956176757813	-696.4761352539064	233.5991668701172	1628.108032226563	-622.5273437500001	311.4283752441407	1688.7705078125	-685.8670654296876	-230.4292297363282	1105.038208007813	-1001.8212890625	-234.7817993164063	1092.700317382813	-775.320007324219	-419.1389160156251	1148.76513671875	-890.1395263671877	-419.1968383789064	1116.82421875	-918.6272583007815	-424.2271118164064	1117.057006835938	-859.729675292969	-301.2613220214844	821.0037841796877	-1073.498901367188	-269.2564086914063	742.6087036132814	-1073.840454101563	-222.1575012207032	746.1707763671876	-1067.123779296875	-297.1039733886719	690.1333618164064	-1062.252563476563	-302.2748413085938	566.3360595703126	-1059.651489257813	-269.5997314453126	540.6695556640626	-947.7553710937502	-251.4521789550782	415.9505004882814	-1040.370849609375	-321.7167053222657	376.7548828125001	-1076.94873046875	-279.6558227539063	370.8796997070313	-1063.916259765625	-279.9027099609376	291.1108398437501	-1025.540405273438	-348.8738708496094	125.3505477905274	-1051.310546875	-327.0883178710938	127.3217086791992	-968.0482177734377	-414.5123901367189	84.39920043945314	-1009.815734863281	-182.6193389892578	56.58320617675783	-993.399108886719	-191.4898681640625	52.57785034179689	-1036.65234375	-238.7140655517579	31.56269454956055	-1085.365600585938	-279.9157714843751	819.9466552734377	-710.5867919921876	-237.7933654785157	768.1544189453127	-707.1829833984376	-206.1128692626954	773.6293945312502	-712.8396606445314	-260.8988037109376	686.0200195312501	-716.0525512695314	-290.6921081542969	546.4400634765626	-738.1799316406251	-252.0775756835938	532.4236450195314	-850.4151611328127	-268.4605407714844	332.7782287597657	-745.4071655273439	-358.6210021972657	274.7039184570313	-738.6105346679689	-313.5766296386719	262.1263732910157	-735.7073364257814	-298.9679870605469	211.3055725097657	-765.9943847656251	-370.9388732910157	121.5908508300782	-742.9385375976564	-340.2633361816407	136.124740600586	-826.8852539062502	-438.4715881347657	98.27015686035159	-793.6306152343752	-214.0989685058594	56.14199829101564	-803.600036621094	-218.4236907958985	55.9270706176758	-758.0220336914064	-273.1120910644532	35.16357040405274	-707.0027465820314	nan	nan	nan	nan	nan	nan	nan	nan	nan	nan	nan	nan	
